<?xml version="1.0" encoding="UTF-8"?>
<svg id="Layer_2" data-name="Layer 2" xmlns="http://www.w3.org/2000/svg" viewBox="0 0 626.36 441.54">
  <defs>
    <style>
      .cls-1 {
        fill: #1b2335;
      }

      .cls-2 {
        fill: #2563eb;
      }
    </style>
  </defs>
  <g id="_Слой_1" data-name="Слой 1">
    <g>
      <g>
        <path class="cls-2" d="M0,252.87h64.07c0-104.11,84.69-188.8,188.8-188.8V0C113.46,0,0,113.4,0,252.87Z"/>
        <path class="cls-2" d="M128.32,252.87h64.07c0-33.38,27.16-60.48,60.48-60.48v-64.07c-68.68,0-124.54,55.87-124.54,124.54Z"/>
      </g>
      <g>
        <path class="cls-1" d="M609.14,295.41c-12.43-17.43-30.62-30.05-51.38-35.56-39.4-10.51-79.89,6.28-101.03,38.76-1.6,2.37-3.01,4.8-4.36,7.3-4.87,9.55-7.82,19.8-9.87,30.5-.51,3.78-.83,7.43-.83,11.21-.77,41.39,26.65,79.63,68.49,90.78,41.19,10.96,84.31-7.43,104.81-44.72l1.54-3.08c2.82-5.51,5.06-11.47,6.73-17.68,7.11-26.72,1.99-54.97-14.09-77.52ZM573.71,359.73c-.9,3.33-2.11,6.41-3.65,9.16l-.64,1.15c-9.35,15.89-28.12,23.64-46.06,18.84-21.85-5.83-34.92-28.38-29.09-50.29,5.83-21.97,28.38-35.04,50.29-29.21,9.23,2.43,17.3,8.07,22.81,15.76,7.18,10.12,9.48,22.68,6.34,34.6Z"/>
        <path class="cls-1" d="M343.14,338.71l63.68,23.13c-34.15,48.18-90.46,79.7-153.95,79.7-104.04,0-188.67-84.63-188.67-188.67h64.07c0,73.42,63.75,132.17,138.83,123.84,29.6-3.33,56.31-17.3,75.98-37.99h.06Z"/>
        <path class="cls-1" d="M441.6,252.87c0,13.39-1.41,26.33-4.1,38.89-.26,1.28-.51,2.5-.83,3.72-2.05,8.65-5.7,19.28-9.87,30.5-1.99,4.74-4.23,9.42-6.6,13.97q0,.06-.06.13l-61.18-21.91s.13-.06.06-.13h.06c8.91-14.41,14.93-30.75,17.23-48.18.19-.9.26-1.79.38-2.69,8.39-75.09-50.42-138.96-123.84-138.96v-64.07c104.04,0,188.74,84.63,188.74,188.74Z"/>
        <polygon class="cls-1" points="484.78 308.67 467.55 356.91 441.67 347.62 420.21 339.93 359.02 318.02 306.75 299.31 306.75 244.86 376.32 269.84 437.5 291.75 456.72 298.61 484.78 308.67"/>
      </g>
    </g>
  </g>
</svg>