<svg xmlns="http://www.w3.org/2000/svg" xmlns:xlink="http://www.w3.org/1999/xlink" height="800" width="1200" viewBox="-29.62179 -19.1413 256.72218 114.8478"><defs><radialGradient gradientUnits="userSpaceOnUse" r="7.5032" fy="86.9484" fx="-189.8884" cy="86.9484" cx="-189.8884" id="i" xlink:href="#a"/><radialGradient gradientTransform="matrix(3.29026 0 0 2 434.8934 -94.4515)" gradientUnits="userSpaceOnUse" r="7.5032" fy="94.4516" fx="-189.8884" cy="94.4516" cx="-189.8884" id="g" xlink:href="#b"/><radialGradient xlink:href="#c" id="e" gradientUnits="userSpaceOnUse" gradientTransform="matrix(3.92225 0 0 .71813 865.561 466.864)" cx="-131.0811" cy="112.6872" fx="-131.0811" fy="112.6872" r="98.7393"/><linearGradient id="a" gradientUnits="userSpaceOnUse" x1="150" y1="84" x2="299" y2="84"><stop offset="0" stop-color="#d70000" stop-opacity=".4365"/><stop offset=".6618" stop-color="#dc0000" stop-opacity=".7222"/><stop offset="1" stop-color="#e10000"/></linearGradient><linearGradient y2="84" x2="299" y1="84" x1="150" gradientUnits="userSpaceOnUse" id="b"><stop offset="0" stop-color="#d40000"/><stop offset=".523" stop-color="#d70000"/><stop offset=".5515" stop-color="#ffdbdb"/><stop offset="1" stop-color="#e10000"/></linearGradient><linearGradient id="c" gradientUnits="userSpaceOnUse" x1="150" y1="84" x2="299" y2="84"><stop offset="0"/><stop offset=".523"/><stop offset=".5515" stop-color="#464646"/><stop offset="1"/></linearGradient><clipPath id="h" clipPathUnits="userSpaceOnUse"><path fill="none" d="M-416.7903-191.68h247.2597v97.7538h-247.2597z"/></clipPath><clipPath id="f" clipPathUnits="userSpaceOnUse"><path fill="none" d="M-268.3132 74.8706h245.7143v97.1429h-245.7143z"/></clipPath><clipPath id="d" clipPathUnits="userSpaceOnUse"><path fill="none" d="M234.2857 466.6479H480v97.1429H234.2857z"/></clipPath></defs><g transform="translate(-252.6893 -471.2224)"><path clip-path="url(#d)" d="M441.2986 476.8804l-.4434 17.7385s-1.9956-3.326-5.7651-4.4347c-3.7694-1.1086-8.204.4435-8.204 9.091v41.6855c0 3.5477 1.1086 6.827 6.5313 6.827 5.4226 0 7.216-4.1662 7.216-4.1662v3.7694h9.5345v-70.5105zm-.6784 34.3314v27.6896s-5.68 6.1189-5.68-1.9277v-35.4652c0-11.245 5.68-2.1676 5.68-2.1676zm-24.512 4.6334v22.264s-2.7092 3.152-4.967 3.152c-2.2576 0-1.9566-4.0528-1.9566-4.0528v-4.9726s-.047-4.768-.168-6.5074c-.5284-7.6265 7.2422-9.6448 7.0917-9.8832zm-14.9385-4.865h8.204s.2218-7.5388.2218-10.4213c0-2.8825 5.765-4.2129 5.765-1.5521v4.652c0 2.439-.401 3.7537-4.0405 7.1011-1.2163 1.1187-6.4726 3.6467-8.8113 5.9854-1.6272 1.6272-1.5607 4.2422-1.5607 8.2334v16.596c0 4.6564 1.7319 6.1811 7.2418 6.1811 2.9578 0 7.1707-4.4028 7.1707-4.4028v4.4347h9.5344v-41.4638c0-14.1908-4.179-15.7723-11.9565-15.7723-7.7776 0-12.3403 6.2376-12.3403 11.1158 0 4.8783.3499 9.978.5716 9.3129zm-26.0416 36.8075h8.9224V516.103s.754-.0706 4.1312 0c4.9213.1029 10.5565-3.3026 10.2929-9.8814-.2601-6.4942 0-16.5211 0-20.5405 0-4.0194-3.7921-8.0187-8.5782-8.0187H375.128zm8.9224-64.15h1.6603c2.8789-.1029 4.8238 1.47 4.8238 3.6278 0 3.8042.091 2 .091 2v16.6642c0 1.5454.091 3.6853-2.8291 3.6853h-3.7461v-25.9773zm-63.7733 7.8611v56.2889h9.9779v-46.1202c0-3.1042 3.991-6.6519 3.991-3.326v49.4462h9.3128V495.459c0-9.7562-13.3038-1.1087-13.3038-1.1087v-2.6298zm41.8197-1.583l-6.4302 28.3816 5.3215 29.4903h10.8648l-6.8736-30.3772 6.6519-27.4947zm-15.9166-12.6387v70.5106h9.091V477.277zm-38.3551 13.5256v56.985h9.091v-56.7632zm-25.9381-13.3039v70.2889h9.9779v-46.1202c0-3.1042 3.991-6.6519 3.991-3.326v49.4462h9.3128V495.459c0-9.7562-13.3038-1.1087-13.3038-1.1087v-16.6298zm-29.1978 9.091h8.8692v61.1979h9.9779v-60.7544h8.6476v-9.3127h-27.273z" fill="url(#e)"/><circle r="7.5032" cy="86.9484" cx="-189.8884" clip-path="url(#f)" transform="translate(502.5989 391.7772)" fill="url(#g)"/><a clip-path="url(#h)" transform="translate(648.4711 657.13) scale(.99375)"><circle r="7.5032" cy="86.9484" cx="-189.8884" transform="translate(-146.7897 -267.0216) scale(1.00629)" fill="url(#i)"/></a></g></svg>