<?xml version="1.0" encoding="UTF-8"?>
<svg id="Layer_2" data-name="Layer 2" xmlns="http://www.w3.org/2000/svg" viewBox="0 0 1073.59 276.31">
  <g id="_Слой_1" data-name="Слой 1">
    <g>
      <g>
        <path d="M681.62,158.24h40.09c0-65.15,53-118.15,118.15-118.15V0c-87.24,0-158.24,70.96-158.24,158.24Z"/>
        <path d="M761.93,158.24h40.09c0-20.89,17-37.85,37.85-37.85v-40.09c-42.98,0-77.94,34.96-77.94,77.94Z"/>
      </g>
      <g>
        <path d="M0,45.61v225.19h38.81V45.61H0Z"/>
        <path d="M165.54,100.46c-23.49,0-42.78,8.82-56.13,25.14v-21.25h-36.56v166.46h36.56v-92.05c0-25.78,17.6-43.06,44.06-43.06,25.1,0,41.41,16.96,41.41,42.42v92.69h36.56v-104.76c0-39.49-26.42-65.59-65.91-65.59Z"/>
        <path d="M342.42,67.5h16.96v-33.64h-20.21c-38.85,0-59.74,19.56-59.74,54.84v15.64h-28.06v33.32h28.06v133.14h36.56v-133.14h41.09v-33.32h-41.09v-11.43c0-15.96,9.78-25.42,26.42-25.42Z"/>
        <path d="M471.67,104.35c-23.49,0-42.78,8.82-55.81,27.74v-27.74h-36.56v166.46h36.56v-80.94c0-30.67,20.53-47.95,55.81-47.95h5.85v-37.57h-5.85Z"/>
        <path d="M625.38,104.35v23.85c-13.71-17.32-33.96-27.74-58.41-27.74-47.03,0-81.95,37.53-81.95,87.12s34.92,87.16,81.95,87.16c24.46,0,44.7-10.46,58.41-27.74v23.81h36.56V104.35h-36.56ZM574.15,239.49c-29.71,0-51.56-22.53-51.56-51.92s21.85-51.88,51.56-51.88,51.24,22.53,51.24,51.88-21.89,51.92-51.24,51.92Z"/>
        <g>
          <path d="M1062.81,184.86c-7.78-10.9-19.16-18.8-32.15-22.25-24.66-6.58-49.99,3.93-63.22,24.26-1,1.48-1.88,3.01-2.73,4.57-3.05,5.97-4.89,12.39-6.17,19.08-.32,2.37-.52,4.65-.52,7.02-.48,25.9,16.68,49.83,42.86,56.81,25.78,6.86,52.76-4.65,65.59-27.98l.96-1.92c1.76-3.45,3.17-7.18,4.21-11.06,4.45-16.72,1.24-34.4-8.82-48.51ZM1040.64,225.11c-.56,2.08-1.32,4.01-2.28,5.73l-.4.72c-5.85,9.94-17.6,14.79-28.83,11.79-13.67-3.65-21.85-17.76-18.2-31.47,3.65-13.75,17.76-21.93,31.47-18.28,5.77,1.52,10.82,5.05,14.27,9.86,4.49,6.33,5.93,14.19,3.97,21.65Z"/>
          <path d="M896.35,211.96l39.85,14.47c-21.37,30.15-56.61,49.87-96.34,49.87-65.11,0-118.07-52.96-118.07-118.07h40.09c0,45.94,39.89,82.71,86.88,77.5,18.52-2.08,35.24-10.82,47.55-23.77h.04Z"/>
          <path d="M957.97,158.24c0,8.38-.88,16.48-2.57,24.34-.16.8-.32,1.56-.52,2.33-1.28,5.41-3.57,12.07-6.17,19.08-1.24,2.97-2.65,5.89-4.13,8.74t-.04.08l-38.29-13.71s.08-.04.04-.08h.04c5.57-9.02,9.34-19.24,10.78-30.15.12-.56.16-1.12.24-1.68,5.25-46.99-31.55-86.96-77.5-86.96v-40.09c65.11,0,118.11,52.96,118.11,118.11Z"/>
          <polygon points="984.99 193.16 974.21 223.35 958.01 217.53 944.58 212.72 906.3 199.01 873.58 187.31 873.58 153.23 917.12 168.86 955.41 182.58 967.43 186.87 984.99 193.16"/>
        </g>
      </g>
    </g>
  </g>
</svg>